<?xml version="1.0" encoding="iso-8859-1"?>
<svg version="1.1" id="Layer_1" xmlns="http://www.w3.org/2000/svg" xmlns:xlink="http://www.w3.org/1999/xlink" x="0px" y="0px"
	 viewBox="0 0 512 512" style="enable-background:new 0 0 512 512;" xml:space="preserve">
<path d="M205.581,126.674c-19.525,0-35.41,15.884-35.41,35.409v187.835c0,19.524,15.884,35.409,35.41,35.409
	c19.524,0,35.409-15.884,35.409-35.409V162.083C240.99,142.558,225.106,126.674,205.581,126.674z M220.591,349.917
	c0,8.277-6.734,15.01-15.01,15.01c-8.277,0-15.011-6.734-15.011-15.01V162.083c0-8.277,6.735-15.01,15.011-15.01
	c8.278,0,15.01,6.734,15.01,15.01V349.917z"/>
<path d="M306.419,126.674c-19.524,0-35.409,15.884-35.409,35.409v187.835c0,19.524,15.884,35.409,35.409,35.409
	c19.524,0,35.409-15.884,35.41-35.409V162.083C341.828,142.558,325.944,126.674,306.419,126.674z M321.43,349.917
	c0,8.277-6.734,15.01-15.011,15.01s-15.01-6.734-15.01-15.01V162.083c0-8.277,6.734-15.01,15.01-15.01s15.01,6.734,15.011,15.01
	V349.917z"/>
</svg>
