<?xml version="1.0" encoding="iso-8859-1"?>
<svg version="1.1" id="Layer_1" xmlns="http://www.w3.org/2000/svg" xmlns:xlink="http://www.w3.org/1999/xlink" x="0px" y="0px"
	 viewBox="0 0 502 502" style="enable-background:new 0 0 502 502;" xml:space="preserve">
<path d="M194.134,401c-5.627,0-11.23-1.394-16.204-4.03c-11.344-6.015-18.391-17.728-18.391-30.567V135.597
	c0-12.839,7.047-24.552,18.39-30.566c11.343-6.013,24.992-5.276,35.62,1.93L383.78,222.363
	c9.508,6.445,15.184,17.151,15.184,28.637c0,11.485-5.676,22.191-15.184,28.637L213.549,395.04
	C207.799,398.939,201.085,401,194.134,401z M194.138,120.995c-2.341,0-4.688,0.564-6.84,1.706
	c-4.786,2.538-7.759,7.479-7.759,12.896v230.806c0,5.417,2.973,10.359,7.759,12.896c2.099,1.112,4.463,1.701,6.836,1.701
	c2.934,0,5.766-0.869,8.191-2.514l170.232-115.403c4.011-2.72,6.406-7.236,6.406-12.083s-2.395-9.363-6.406-12.082
	L202.326,123.515C199.858,121.842,197.004,120.995,194.138,120.995z"/>
</svg>
